<svg width="98" height="98" viewBox="0 0 98 98" fill="none" xmlns="http://www.w3.org/2000/svg">
<g opacity="0.7">
<path d="M48.3022 30.199C48 29.8968 47.6413 29.6571 47.2465 29.4936C46.8517 29.3301 46.4285 29.2459 46.0012 29.2459C45.5738 29.2459 45.1507 29.3301 44.7559 29.4936C44.3611 29.6571 44.0023 29.8968 43.7002 30.199C43.398 30.5012 43.1583 30.8599 42.9948 31.2547C42.8312 31.6495 42.7471 32.0726 42.7471 32.5C42.7471 32.9273 42.8312 33.3505 42.9948 33.7453C43.1583 34.1401 43.398 34.4988 43.7002 34.801L51.1557 42.25L43.7002 49.6989C43.398 50.0011 43.1583 50.3598 42.9948 50.7546C42.8312 51.1494 42.7471 51.5726 42.7471 51.9999C42.7471 52.4273 42.8312 52.8504 42.9948 53.2452C43.1583 53.64 43.398 53.9988 43.7002 54.3009C44.0023 54.6031 44.3611 54.8428 44.7559 55.0063C45.1507 55.1699 45.5738 55.254 46.0012 55.254C46.4285 55.254 46.8517 55.1699 47.2465 55.0063C47.6413 54.8428 48 54.6031 48.3022 54.3009L55.7511 46.8454L63.2001 54.3009C63.8104 54.9112 64.6381 55.254 65.5011 55.254C66.3642 55.254 67.1919 54.9112 67.8021 54.3009C68.4124 53.6907 68.7552 52.863 68.7552 51.9999C68.7552 51.1369 68.4124 50.3092 67.8021 49.6989L60.3466 42.25L67.8021 34.801C68.4124 34.1907 68.7552 33.363 68.7552 32.5C68.7552 31.6369 68.4124 30.8092 67.8021 30.199C67.1919 29.5887 66.3642 29.2459 65.5011 29.2459C64.6381 29.2459 63.8104 29.5887 63.2001 30.199L55.7511 37.6545L48.3022 30.199Z" fill="#282C3F"/>
<path d="M3.75097 -4.57764e-05C2.88902 -4.57764e-05 2.06237 0.342363 1.45288 0.951855C0.843386 1.56135 0.500977 2.388 0.500977 3.24995C0.500977 4.1119 0.843386 4.93855 1.45288 5.54804C2.06237 6.15753 2.88902 6.49994 3.75097 6.49994H10.966L13.5724 16.9454L23.3094 68.8478C23.4488 69.5926 23.8441 70.2652 24.4268 70.7494C25.0096 71.2337 25.7432 71.4991 26.5009 71.4998H33.0009C29.5531 71.4998 26.2465 72.8694 23.8085 75.3074C21.3706 77.7454 20.0009 81.052 20.0009 84.4998C20.0009 87.9476 21.3706 91.2542 23.8085 93.6921C26.2465 96.1301 29.5531 97.4998 33.0009 97.4998C36.4487 97.4998 39.7553 96.1301 42.1933 93.6921C44.6312 91.2542 46.0009 87.9476 46.0009 84.4998C46.0009 81.052 44.6312 77.7454 42.1933 75.3074C39.7553 72.8694 36.4487 71.4998 33.0009 71.4998H78.5008C75.053 71.4998 71.7464 72.8694 69.3084 75.3074C66.8705 77.7454 65.5008 81.052 65.5008 84.4998C65.5008 87.9476 66.8705 91.2542 69.3084 93.6921C71.7464 96.1301 75.053 97.4998 78.5008 97.4998C81.9486 97.4998 85.2552 96.1301 87.6932 93.6921C90.1311 91.2542 91.5008 87.9476 91.5008 84.4998C91.5008 81.052 90.1311 77.7454 87.6932 75.3074C85.2552 72.8694 81.9486 71.4998 78.5008 71.4998H85.0008C85.7585 71.4991 86.4921 71.2337 87.0749 70.7494C87.6576 70.2652 88.0529 69.5926 88.1923 68.8478L97.9423 16.8479C98.0301 16.3789 98.0135 15.8962 97.8938 15.4343C97.774 14.9724 97.554 14.5425 97.2493 14.1751C96.9447 13.8078 96.5629 13.5121 96.1311 13.309C95.6992 13.1059 95.228 13.0004 94.7508 12.9999H19.2859L16.6534 2.46345C16.478 1.76005 16.0724 1.13549 15.5012 0.689114C14.93 0.242733 14.2259 0.000154498 13.5009 -4.57764e-05H3.75097ZM29.1984 64.9998L20.6639 19.4999H90.8378L82.3033 64.9998H29.1984ZM39.5009 84.4998C39.5009 86.2237 38.8161 87.877 37.5971 89.096C36.3781 90.3149 34.7248 90.9998 33.0009 90.9998C31.277 90.9998 29.6237 90.3149 28.4047 89.096C27.1857 87.877 26.5009 86.2237 26.5009 84.4998C26.5009 82.7759 27.1857 81.1226 28.4047 79.9036C29.6237 78.6846 31.277 77.9998 33.0009 77.9998C34.7248 77.9998 36.3781 78.6846 37.5971 79.9036C38.8161 81.1226 39.5009 82.7759 39.5009 84.4998ZM85.0008 84.4998C85.0008 86.2237 84.316 87.877 83.097 89.096C81.878 90.3149 80.2247 90.9998 78.5008 90.9998C76.7769 90.9998 75.1236 90.3149 73.9046 89.096C72.6856 87.877 72.0008 86.2237 72.0008 84.4998C72.0008 82.7759 72.6856 81.1226 73.9046 79.9036C75.1236 78.6846 76.7769 77.9998 78.5008 77.9998C80.2247 77.9998 81.878 78.6846 83.097 79.9036C84.316 81.1226 85.0008 82.7759 85.0008 84.4998Z" fill="#282C3F"/>
</g>
</svg>
