<svg width="22" height="22" viewBox="0 0 22 22" fill="none" xmlns="http://www.w3.org/2000/svg">
<path d="M9.99992 3.00037H2.99992C2.46949 3.00037 1.96078 3.21108 1.58571 3.58615C1.21064 3.96123 0.999924 4.46993 0.999924 5.00037V19.0004C0.999924 19.5308 1.21064 20.0395 1.58571 20.4146C1.96078 20.7897 2.46949 21.0004 2.99992 21.0004H16.9999C17.5304 21.0004 18.0391 20.7897 18.4141 20.4146C18.7892 20.0395 18.9999 19.5308 18.9999 19.0004V12.0004" stroke="#0066B2" stroke-width="1.5" stroke-linecap="round" stroke-linejoin="round"/>
<path d="M17.4999 1.50035C17.8977 1.10252 18.4373 0.879028 18.9999 0.879028C19.5625 0.879028 20.1021 1.10252 20.4999 1.50035C20.8977 1.89817 21.1212 2.43774 21.1212 3.00035C21.1212 3.56296 20.8977 4.10252 20.4999 4.50035L10.9999 14.0003L6.99992 15.0003L7.99992 11.0003L17.4999 1.50035Z" stroke="#0066B2" stroke-width="1.5" stroke-linecap="round" stroke-linejoin="round"/>
</svg>
