<svg width="12" height="10" viewBox="0 0 12 10" fill="none" xmlns="http://www.w3.org/2000/svg">
<path d="M10.1212 0.334537C10.327 0.121012 10.6047 0.000841207 10.8944 4.39959e-06C11.1841 -0.000832408 11.4624 0.117732 11.6693 0.330065C11.8762 0.542398 11.9949 0.831439 11.9998 1.1347C12.0048 1.43795 11.8955 1.73106 11.6957 1.95065L5.82705 9.63106C5.72619 9.7448 5.60445 9.83607 5.46913 9.89943C5.3338 9.96279 5.18766 9.99693 5.03944 9.9998C4.89123 10.0027 4.74398 9.97423 4.60651 9.91616C4.46903 9.85809 4.34416 9.77159 4.23934 9.66184L0.350925 5.58922C0.242598 5.48354 0.155712 5.3561 0.0954499 5.2145C0.0351876 5.0729 0.00278364 4.92004 0.00017159 4.76504C-0.00244046 4.61004 0.024793 4.45608 0.0802466 4.31234C0.1357 4.1686 0.218238 4.03803 0.322937 3.92841C0.427636 3.8188 0.55235 3.73238 0.68964 3.67432C0.82693 3.61626 0.973983 3.58775 1.12203 3.59049C1.27007 3.59322 1.41607 3.62715 1.55132 3.69024C1.68657 3.75333 1.80829 3.8443 1.90923 3.95772L4.98762 7.17918L10.0933 0.368399C10.1024 0.356473 10.1122 0.345163 10.1227 0.334537H10.1212Z" fill="#0066B2"/>
</svg>
